<svg xmlns="http://www.w3.org/2000/svg" width="256" height="256" viewBox="0 0 67.733 67.733"><path d="M33.867 33.867H0V0h33.867z" fill="#049cce"/><path d="M67.733 33.867H33.867V0h33.866z" fill="#262726"/><path d="M67.733 67.733H33.867V33.867h33.866z" fill="#ef4823"/><path d="M8.729 6.563h5.249c.688 0 1.298.019 1.828.056.53.037.996.093 1.396.168.4.074.75.158 1.047.25.298.094.568.196.81.308 1.173.54 2.08 1.336 2.722 2.387.642 1.052.963 2.22.963 3.504 0 .745-.135 1.48-.404 2.206a6.324 6.324 0 0 1-1.173 1.968 6.155 6.155 0 0 1-1.913 1.452c-.763.381-1.647.6-2.652.656l5.836 7.706H19.84l-7.008-9.353c.651 0 1.205-.005 1.66-.014.457-.01.853-.023 1.188-.042.335-.018.628-.047.88-.084a4.13 4.13 0 0 0 .711-.168 5.16 5.16 0 0 0 1.48-.697 4.556 4.556 0 0 0 1.075-1.034c.288-.39.502-.814.642-1.27.14-.456.21-.917.21-1.382 0-.41-.056-.814-.168-1.214a5.245 5.245 0 0 0-.46-1.131 4.217 4.217 0 0 0-.713-.95 3.538 3.538 0 0 0-.921-.67 6.312 6.312 0 0 0-1.815-.628c-.596-.102-1.33-.153-2.205-.153h-3.602v18.79H8.729zM44.355 25.56h2.987c.465 0 .986-.008 1.564-.027.577-.018 1.177-.08 1.8-.182a11.005 11.005 0 0 0 1.885-.488 7.325 7.325 0 0 0 1.843-.977c.316-.26.66-.596 1.033-1.005a8.59 8.59 0 0 0 1.047-1.452c.325-.558.6-1.2.824-1.927.223-.726.335-1.535.335-2.429a8.17 8.17 0 0 0-.95-3.867 8.525 8.525 0 0 0-2.568-2.973 9.013 9.013 0 0 0-2.96-1.243c-.54-.12-1.126-.209-1.759-.265a24.112 24.112 0 0 0-2.094-.083h-2.987zM42.289 6.77h6.03c1.285 0 2.518.15 3.7.448 1.181.298 2.191.716 3.029 1.256.912.558 1.666 1.21 2.262 1.954a11.106 11.106 0 0 1 1.437 2.304c.363.791.62 1.573.768 2.345.15.773.223 1.466.223 2.08 0 .484-.06 1.085-.18 1.801-.122.717-.35 1.47-.685 2.261-.335.792-.81 1.582-1.424 2.374-.614.79-1.415 1.503-2.401 2.135-.838.54-1.848.96-3.029 1.257a15.086 15.086 0 0 1-3.7.447h-6.03zM46.1 51.933h8.013l-3.965-9.492zm2.876-11.838h2.317l8.879 20.66H57.91l-2.987-6.951h-9.605l-3.015 6.952h-2.15z" fill="#fff"/></svg>